<?xml version="1.0" encoding="UTF-8" standalone="no"?>
<!-- Created with Inkscape (http://www.inkscape.org/) -->
<svg id="svg7384" xmlns:rdf="http://www.w3.org/1999/02/22-rdf-syntax-ns#" xmlns="http://www.w3.org/2000/svg" height="16" width="16" version="1.1" xmlns:cc="http://creativecommons.org/ns#" xmlns:dc="http://purl.org/dc/elements/1.1/">
 <metadata id="metadata90">
  <rdf:RDF>
   <cc:Work rdf:about="">
    <dc:format>image/svg+xml</dc:format>
    <dc:type rdf:resource="http://purl.org/dc/dcmitype/StillImage"/>
    <dc:title>Gnome Symbolic Icon Theme</dc:title>
   </cc:Work>
  </rdf:RDF>
 </metadata>
 <title id="title9167">Gnome Symbolic Icon Theme</title>
 <g id="layer11" transform="translate(-243,-649)">
  <path id="path7920" style="block-progression:tb;text-indent:0;color:#000000;text-transform:none;fill:#bebebe" d="m247 650v4h-3.0205c-0.54534 0-0.96875 0.42341-0.96875 0.96875 0 0.54535 0.42341 1 0.96875 1h3.0205v2.0625h-3.0205c-0.54534 0-0.96875 0.42341-0.96875 0.96875 0 0.54535 0.42341 1 0.96875 1h3.0205v4l1-0.0937c4.063-0.38091 6.2042-4.8423 5.9375-7.75-0.38437-3.197-2.8928-5.6179-5.9375-6.0625l-1-0.0937zm1 2.0938c2.0425 0.42745 3.705 2.1191 3.9688 4.3125 0.31355 2.608-1.3913 5.0249-3.9688 5.5312z"/>
  <path id="path7922" style="opacity:.3;color:#000000;fill:#bebebe" d="m249.34 652.88c-0.77785-0.13108-1.2121 1.3358-0.29427 0.81948-0.0229-0.92977 0.68165 0.0909 0.0766 0.26611-0.45485 0.0897-0.65532-0.0705-0.94235 0.45497-0.35676 0.37222-0.18167 1.1938 0.31937 0.50676 0.39013-0.2891 0.62946 0.78353 0.59147-0.0209 0.0744 0.16412 0.37541 0.50927 0.60493 0.35853 0.56636 0.11105 0.62179 0.66202-0.016 0.52878-0.63563 0.11569-1.6508-0.93807-1.6632 0.26192 0.0198 0.64976 0.007 1.3 0.0109 1.95 0.95308-0.34702 0.95854 1.0776 0.91402 1.72 0.0923 0.50281 0.16312 1.8991 0.92481 1.2066 0.49057-0.69648 0.93548-1.3727 0.84745-2.2536 0.23169-0.35036 0.95594-1.3628 0.0629-1.2961-0.33412-0.25815-0.69825-1.7197-0.18848-0.8122 0.046 0.76672 0.7391 0.98167 1.0293 0.20833 0.35039-0.39282-0.91916-0.47489-0.30833-0.69789 0.44865 0.57012 0.93158 0.0258 0.52953-0.49467-0.37325-0.79864-0.83934-2.1753-1.7216-2.2971-0.27079 0.22095-0.49588-0.13404-0.12291-0.20005-0.18632-0.13561-0.46288-0.0776-0.65405-0.20889z"/>
  <path id="path8472" style="block-progression:tb;text-indent:0;color:#000000;enable-background:new;text-transform:none;fill:#bebebe" d="m257.19 652c-0.74361-0.0366-1.543 0.36762-1.8125 1.1562-0.28648 0.84634 0.1721 1.6285 0.625 2.125 0.50634 0.55116 0.95722 1.0521 0.96875 1.5938 0.0101 0.12705-0.0265 0.32333-0.125 0.4375s-0.19795 0.16596-0.3125 0.15625c-0.16676-0.0191-0.2944-0.11077-0.46875-0.28125-0.16585-0.16217-0.36221-0.39689-0.59375-0.625-0.01-0.0111-0.0211-0.0205-0.0312-0.0312-0.59801-0.63622-1.6141-0.75476-2.2812-0.125l0.6875 0.75c0.2182-0.20596 0.66556-0.17266 0.875 0.0625l0.0312 0.0312c0.16445 0.15757 0.37436 0.41118 0.625 0.65625s0.57229 0.47879 1.0312 0.53125h0.0312c0.4719 0.04 0.88833-0.15809 1.1562-0.46875 0.26137-0.30307 0.3995-0.70745 0.375-1.125-0.00023-0.011 0.00039-0.0203 0-0.0312-0.0363-1.0088-0.73453-1.6917-1.2188-2.2188-0.32738-0.35889-0.51919-0.79134-0.40625-1.125 0.0978-0.28616 0.46274-0.49156 0.8125-0.46875h0.0312 0.0312c0.56409-0.0198 1.1411 0.003 1.75 0v-1c-0.5641 0.003-1.1428-0.0197-1.75 0-0.0108 0.00035-0.0204-0.00038-0.0312 0z"/>
 </g>
</svg>
