<?xml version="1.0" encoding="UTF-8" standalone="no"?>
<!-- Created with Inkscape (http://www.inkscape.org/) -->
<svg id="svg7384" xmlns:rdf="http://www.w3.org/1999/02/22-rdf-syntax-ns#" xmlns="http://www.w3.org/2000/svg" height="16" width="16" version="1.1" xmlns:cc="http://creativecommons.org/ns#" xmlns:dc="http://purl.org/dc/elements/1.1/">
 <metadata id="metadata90">
  <rdf:RDF>
   <cc:Work rdf:about="">
    <dc:format>image/svg+xml</dc:format>
    <dc:type rdf:resource="http://purl.org/dc/dcmitype/StillImage"/>
    <dc:title>Gnome Symbolic Icon Theme</dc:title>
   </cc:Work>
  </rdf:RDF>
 </metadata>
 <title id="title9167">Gnome Symbolic Icon Theme</title>
 <g id="layer13" transform="translate(-481 -175)">
  <path id="path2930-9" style="color:#bebebe;text-indent:0pt;text-transform:none;fill:#bebebe" d="m485 177v-0.96875h7v0.96875zm-0.53125-1.9688c-0.49033 0-0.79607 0.22845-1.0312 0.46875-0.23518 0.2403-0.4375 0.55851-0.4375 1.0312v0.46875h-2v2h15v-2h-2v-0.34375-0.0313c-0.0239-0.4306-0.17024-0.75229-0.40625-1.0312-0.22373-0.26444-0.62669-0.52931-1.1562-0.53125v-0.0313h-0.0625-7.9062zm8.53 4.97h2v8.7812c0 1.2008-0.98238 2.2188-2.1875 2.2188h-8.625c-1.2051 0-2.1875-1.018-2.1875-2.2188v-8.7812h2v9h9zm-4.9688 1v7h0.96875v-7zm1.9688 0v7h1v-7zm-3.9688 0v7h0.96875v-7z"/>
 </g>
</svg>
